<svg width="129" height="115" viewBox="0 0 129 115" fill="none" xmlns="http://www.w3.org/2000/svg">
<path d="M68.5 11C59.8965 11 51.4862 13.5512 44.3327 18.3311C37.1792 23.1109 31.6037 29.9047 28.3113 37.8533C25.0188 45.8019 24.1574 54.5482 25.8359 62.9864C27.5143 71.4246 31.6573 79.1755 37.7409 85.2591C43.8245 91.3427 51.5754 95.4857 60.0136 97.1641C68.4518 98.8426 77.1982 97.9812 85.1467 94.6887C93.0953 91.3963 99.8891 85.8208 104.669 78.6673C109.449 71.5138 112 63.1035 112 54.5C111.987 42.967 107.4 31.9099 99.2452 23.7548C91.0901 15.5998 80.033 11.0127 68.5 11ZM68.5 93.9153C65.7465 91.2662 58.495 83.297 54.8976 70.16H82.1025C78.505 83.297 71.2536 91.2662 68.5 93.9153ZM54.0667 66.68C52.4309 58.6424 52.4309 50.3576 54.0667 42.32H82.9333C84.5691 50.3576 84.5691 58.6424 82.9333 66.68H54.0667ZM68.5 15.0846C71.2536 17.7338 78.505 25.703 82.1025 38.84H54.8976C58.495 25.703 65.7465 17.7338 68.5 15.0846ZM86.5134 42.32H106.623C109.152 50.2432 109.152 58.7568 106.623 66.68H86.5134C88.015 58.6294 88.015 50.3706 86.5134 42.32ZM105.327 38.84H85.7521C83.5564 29.8886 79.1962 21.6133 73.0545 14.741C80.0804 15.5573 86.7658 18.2162 92.4333 22.4482C98.1007 26.6803 102.549 32.3352 105.327 38.84ZM63.9499 14.741C57.8082 21.6133 53.448 29.8886 51.2523 38.84H31.6773C34.4555 32.3352 38.9036 26.6803 44.5711 22.4482C50.2386 18.2162 56.9239 15.5573 63.9499 14.741ZM30.3766 42.32H50.4867C48.985 50.3706 48.985 58.6294 50.4867 66.68H30.3766C27.8482 58.7568 27.8482 50.2432 30.3766 42.32ZM31.6816 70.16H51.2566C53.4523 79.1114 57.8126 87.3867 63.9543 94.259C56.9267 93.4441 50.2396 90.7859 44.5704 86.5538C38.9013 82.3216 34.4518 76.6659 31.6729 70.16H31.6816ZM73.0588 94.259C79.1974 87.3858 83.5546 79.1106 85.7478 70.16H105.323C102.545 76.6648 98.0964 82.3197 92.4289 86.5517C86.7615 90.7838 80.0761 93.4427 73.0501 94.259H73.0588Z" fill="url(#paint0_linear_1_969)"/>
<g filter="url(#filter0_b_1_969)">
<path d="M95.5374 106.392C95.8042 104.605 94.4207 103 92.6148 103H87.1349C85.6557 103 84.4044 104.094 84.2064 105.56L83.4525 111.141C83.2131 112.914 84.5918 114.492 86.381 114.492H91.7812C93.2446 114.492 94.4876 113.421 94.7038 111.973L95.5374 106.392Z" fill="#63B6FF" fill-opacity="0.11"/>
<path d="M95.3751 106.367C95.627 104.68 94.3203 103.164 92.6148 103.164H87.1349C85.7379 103.164 84.5561 104.197 84.3691 105.581L83.6152 111.163C83.3891 112.838 84.6912 114.328 86.381 114.328H91.7812C93.1633 114.328 94.3373 113.316 94.5414 111.949L95.3751 106.367Z" stroke="#BE69FF" stroke-opacity="0.2" stroke-width="0.328337"/>
</g>
<path opacity="0.1" d="M92.3317 107.262C92.4432 106.632 91.9583 106.054 91.3181 106.054H88.1799C87.6735 106.054 87.2423 106.422 87.1632 106.922L86.657 110.125C86.5582 110.75 87.0411 111.315 87.6737 111.315H90.7517C91.251 111.315 91.6783 110.956 91.7653 110.465L92.3317 107.262Z" fill="#63B6FF" fill-opacity="0.11" stroke="white" stroke-width="0.686211"/>
<g filter="url(#filter1_b_1_969)">
<path d="M105.738 94.9402C105.349 92.3386 107.365 90 109.995 90H117.977C120.132 90 121.954 91.593 122.243 93.7282L123.341 101.859C123.69 104.441 121.681 106.739 119.075 106.739H111.209C109.078 106.739 107.267 105.179 106.952 103.071L105.738 94.9402Z" fill="#63B6FF" fill-opacity="0.11"/>
<path d="M105.974 94.9048C105.607 92.4478 107.511 90.2391 109.995 90.2391H117.977C120.012 90.2391 121.733 91.7437 122.006 93.7602L123.104 101.891C123.433 104.33 121.537 106.5 119.075 106.5H111.209C109.196 106.5 107.486 105.026 107.189 103.035L105.974 94.9048Z" stroke="#BE69FF" stroke-opacity="0.2" stroke-width="0.478261"/>
</g>
<path opacity="0.1" d="M110.407 96.209C110.245 95.2907 110.951 94.4485 111.884 94.4485H116.455C117.193 94.4485 117.821 94.9851 117.936 95.7137L118.673 100.378C118.817 101.288 118.114 102.112 117.192 102.112H112.709C111.981 102.112 111.359 101.59 111.232 100.874L110.407 96.209Z" fill="#63B6FF" fill-opacity="0.11" stroke="white" stroke-width="0.999545"/>
<g filter="url(#filter2_b_1_969)">
<path d="M105.738 7.94015C105.349 5.33857 107.365 3 109.995 3L117.977 3C120.132 3 121.954 4.59303 122.243 6.72821L123.341 14.8586C123.69 17.4414 121.681 19.7391 119.075 19.7391H111.209C109.078 19.7391 107.267 18.1789 106.952 16.0706L105.738 7.94015Z" fill="#63B6FF" fill-opacity="0.11"/>
<path d="M105.974 7.90483C105.607 5.44778 107.511 3.23913 109.995 3.23913L117.977 3.23913C120.012 3.23913 121.733 4.74366 122.006 6.76022L123.104 14.8906C123.433 17.3299 121.537 19.5 119.075 19.5H111.209C109.196 19.5 107.486 18.0264 107.189 16.0353L105.974 7.90483Z" stroke="#BE69FF" stroke-opacity="0.2" stroke-width="0.478261"/>
</g>
<path opacity="0.1" d="M110.407 9.20896C110.245 8.2907 110.951 7.4485 111.884 7.4485L116.455 7.4485C117.193 7.4485 117.821 7.98508 117.936 8.7137L118.673 13.3782C118.817 14.2884 118.114 15.1117 117.192 15.1117L112.709 15.1117C111.981 15.1117 111.359 14.5897 111.232 13.8735L110.407 9.20896Z" fill="#63B6FF" fill-opacity="0.11" stroke="white" stroke-width="0.999545"/>
<g filter="url(#filter3_b_1_969)">
<path d="M34.4935 11.6388C34.7602 9.8528 33.3767 8.24731 31.5709 8.24731H26.0909C24.6118 8.24731 23.3605 9.34097 23.1625 10.8068L22.4086 16.3886C22.1691 18.1616 23.5478 19.7391 25.337 19.7391H30.7372C32.2007 19.7391 33.4437 18.668 33.6598 17.2206L34.4935 11.6388Z" fill="#63B6FF" fill-opacity="0.11"/>
<path d="M34.3311 11.6146C34.583 9.92777 33.2764 8.41148 31.5709 8.41148H26.0909C24.694 8.41148 23.5122 9.44438 23.3252 10.8288L22.5713 16.4105C22.3451 18.0851 23.6472 19.5749 25.337 19.5749H30.7372C32.1194 19.5749 33.2933 18.5633 33.4975 17.1963L34.3311 11.6146Z" stroke="#BE69FF" stroke-opacity="0.2" stroke-width="0.328337"/>
</g>
<path opacity="0.1" d="M31.2878 12.5097C31.3993 11.8793 30.9144 11.3011 30.2742 11.3011H27.136C26.6296 11.3011 26.1984 11.6695 26.1193 12.1697L25.613 15.372C25.5143 15.9968 25.9971 16.5621 26.6297 16.5621H29.7078C30.2071 16.5621 30.6344 16.2037 30.7213 15.712L31.2878 12.5097Z" fill="#63B6FF" fill-opacity="0.11" stroke="white" stroke-width="0.686211"/>
<g filter="url(#filter4_b_1_969)">
<path d="M0.737815 51.9402C0.349267 49.3386 2.36451 47 4.99495 47H12.9771C15.1316 47 16.9543 48.593 17.2427 50.7282L18.3408 58.8586C18.6897 61.4414 16.6814 63.7391 14.0752 63.7391H6.20923C4.07756 63.7391 2.26698 62.1789 1.9521 60.0706L0.737815 51.9402Z" fill="#63B6FF" fill-opacity="0.11"/>
<path d="M0.974323 51.9048C0.60736 49.4478 2.51064 47.2391 4.99495 47.2391H12.9771C15.0119 47.2391 16.7333 48.7437 17.0057 50.7602L18.1038 58.8906C18.4333 61.3299 16.5366 63.5 14.0752 63.5H6.20923C4.19598 63.5 2.48599 62.0264 2.18861 60.0353L0.974323 51.9048Z" stroke="#BE69FF" stroke-opacity="0.2" stroke-width="0.478261"/>
</g>
<path opacity="0.1" d="M5.40731 53.209C5.24489 52.2907 5.9512 51.4485 6.88371 51.4485H11.4548C12.1925 51.4485 12.8206 51.9851 12.9358 52.7137L13.6732 57.3782C13.8171 58.2884 13.1137 59.1117 12.1923 59.1117H7.70876C6.98145 59.1117 6.35903 58.5897 6.23236 57.8735L5.40731 53.209Z" fill="#63B6FF" fill-opacity="0.11" stroke="white" stroke-width="0.999545"/>
<g filter="url(#filter5_b_1_969)">
<path d="M127.537 30.3915C127.804 28.6055 126.421 27 124.615 27H119.135C117.656 27 116.404 28.0937 116.206 29.5595L115.453 35.1412C115.213 36.9143 116.592 38.4918 118.381 38.4918H123.781C125.245 38.4918 126.488 37.4207 126.704 35.9733L127.537 30.3915Z" fill="#63B6FF" fill-opacity="0.11"/>
<path d="M127.375 30.3673C127.627 28.6805 126.32 27.1642 124.615 27.1642H119.135C117.738 27.1642 116.556 28.1971 116.369 29.5815L115.615 35.1632C115.389 36.8378 116.691 38.3276 118.381 38.3276H123.781C125.163 38.3276 126.337 37.316 126.541 35.949L127.375 30.3673Z" stroke="#BE69FF" stroke-opacity="0.2" stroke-width="0.328337"/>
</g>
<path opacity="0.1" d="M124.332 31.2624C124.443 30.632 123.958 30.0538 123.318 30.0538H120.18C119.674 30.0538 119.242 30.4222 119.163 30.9224L118.657 34.1247C118.558 34.7495 119.041 35.3148 119.674 35.3148H122.752C123.251 35.3148 123.678 34.9564 123.765 34.4647L124.332 31.2624Z" fill="#63B6FF" fill-opacity="0.11" stroke="white" stroke-width="0.686211"/>
<g filter="url(#filter6_b_1_969)">
<path d="M29.2735 88.1318C29.5985 85.9559 27.913 84 25.713 84H19.0371C17.2351 84 15.7107 85.3324 15.4695 87.1181L14.551 93.9181C14.2593 96.0782 15.9389 98 18.1186 98H24.6975C26.4803 98 27.9946 96.6951 28.258 94.9318L29.2735 88.1318Z" fill="#63B6FF" fill-opacity="0.11"/>
<path d="M29.0757 88.1022C29.3827 86.0472 27.7908 84.2 25.713 84.2H19.0371C17.3352 84.2 15.8955 85.4583 15.6677 87.1449L14.7492 93.9449C14.4737 95.985 16.06 97.8 18.1186 97.8H24.6975C26.3813 97.8 27.8114 96.5676 28.0602 94.9022L29.0757 88.1022Z" stroke="#BE69FF" stroke-opacity="0.2" stroke-width="0.4"/>
</g>
<path opacity="0.1" d="M25.3681 89.1924C25.504 88.4244 24.9132 87.72 24.1333 87.72H20.3102C19.6932 87.72 19.1679 88.1688 19.0716 88.7782L18.4548 92.6794C18.3345 93.4406 18.9228 94.1292 19.6934 94.1292H23.4433C24.0516 94.1292 24.5721 93.6926 24.6781 93.0936L25.3681 89.1924Z" fill="#63B6FF" fill-opacity="0.11" stroke="white" stroke-width="0.835983"/>
<g filter="url(#filter7_b_1_969)">
<path d="M45.0811 2.42999C44.915 1.31745 45.7768 0.317383 46.9017 0.317383L50.3152 0.317383C51.2365 0.317383 52.016 0.998629 52.1393 1.91172L52.6089 5.38862C52.7581 6.4931 51.8993 7.47572 50.7848 7.47572H47.4209C46.5094 7.47572 45.7351 6.80849 45.6004 5.9069L45.0811 2.42999Z" fill="#63B6FF" fill-opacity="0.11"/>
<path d="M45.1823 2.41489C45.0254 1.36415 45.8393 0.419645 46.9017 0.419645L50.3152 0.419645C51.1853 0.419645 51.9215 1.06304 52.038 1.92541L52.5076 5.40231C52.6485 6.44543 51.8373 7.37346 50.7848 7.37346H47.4209C46.56 7.37346 45.8287 6.7433 45.7016 5.8918L45.1823 2.41489Z" stroke="#BE69FF" stroke-opacity="0.2" stroke-width="0.204524"/>
</g>
<path opacity="0.1" d="M47.0779 2.9723C47.0085 2.57962 47.3105 2.21946 47.7093 2.21946L49.6641 2.21946C49.9796 2.21946 50.2482 2.44892 50.2974 2.76051L50.6128 4.75526C50.6743 5.14446 50.3735 5.49655 49.9795 5.49655H48.0621C47.7511 5.49655 47.4849 5.27333 47.4308 4.96705L47.0779 2.9723Z" fill="#63B6FF" fill-opacity="0.11" stroke="white" stroke-width="0.427446"/>
<defs>
<filter id="filter0_b_1_969" x="60.5517" y="80.1263" width="57.8924" height="57.2392" filterUnits="userSpaceOnUse" color-interpolation-filters="sRGB">
<feFlood flood-opacity="0" result="BackgroundImageFix"/>
<feGaussianBlur in="BackgroundImageFix" stdDeviation="11.4369"/>
<feComposite in2="SourceAlpha" operator="in" result="effect1_backgroundBlur_1_969"/>
<feBlend mode="normal" in="SourceGraphic" in2="effect1_backgroundBlur_1_969" result="shape"/>
</filter>
<filter id="filter1_b_1_969" x="72.3715" y="56.6818" width="84.3269" height="83.3755" filterUnits="userSpaceOnUse" color-interpolation-filters="sRGB">
<feFlood flood-opacity="0" result="BackgroundImageFix"/>
<feGaussianBlur in="BackgroundImageFix" stdDeviation="16.6591"/>
<feComposite in2="SourceAlpha" operator="in" result="effect1_backgroundBlur_1_969"/>
<feBlend mode="normal" in="SourceGraphic" in2="effect1_backgroundBlur_1_969" result="shape"/>
</filter>
<filter id="filter2_b_1_969" x="72.3715" y="-30.3182" width="84.3269" height="83.3755" filterUnits="userSpaceOnUse" color-interpolation-filters="sRGB">
<feFlood flood-opacity="0" result="BackgroundImageFix"/>
<feGaussianBlur in="BackgroundImageFix" stdDeviation="16.6591"/>
<feComposite in2="SourceAlpha" operator="in" result="effect1_backgroundBlur_1_969"/>
<feBlend mode="normal" in="SourceGraphic" in2="effect1_backgroundBlur_1_969" result="shape"/>
</filter>
<filter id="filter3_b_1_969" x="-0.492231" y="-14.6264" width="57.8924" height="57.2392" filterUnits="userSpaceOnUse" color-interpolation-filters="sRGB">
<feFlood flood-opacity="0" result="BackgroundImageFix"/>
<feGaussianBlur in="BackgroundImageFix" stdDeviation="11.4369"/>
<feComposite in2="SourceAlpha" operator="in" result="effect1_backgroundBlur_1_969"/>
<feBlend mode="normal" in="SourceGraphic" in2="effect1_backgroundBlur_1_969" result="shape"/>
</filter>
<filter id="filter4_b_1_969" x="-32.6285" y="13.6818" width="84.3269" height="83.3755" filterUnits="userSpaceOnUse" color-interpolation-filters="sRGB">
<feFlood flood-opacity="0" result="BackgroundImageFix"/>
<feGaussianBlur in="BackgroundImageFix" stdDeviation="16.6591"/>
<feComposite in2="SourceAlpha" operator="in" result="effect1_backgroundBlur_1_969"/>
<feBlend mode="normal" in="SourceGraphic" in2="effect1_backgroundBlur_1_969" result="shape"/>
</filter>
<filter id="filter5_b_1_969" x="92.5517" y="4.1263" width="57.8924" height="57.2392" filterUnits="userSpaceOnUse" color-interpolation-filters="sRGB">
<feFlood flood-opacity="0" result="BackgroundImageFix"/>
<feGaussianBlur in="BackgroundImageFix" stdDeviation="11.4369"/>
<feComposite in2="SourceAlpha" operator="in" result="effect1_backgroundBlur_1_969"/>
<feBlend mode="normal" in="SourceGraphic" in2="effect1_backgroundBlur_1_969" result="shape"/>
</filter>
<filter id="filter6_b_1_969" x="-13.348" y="56.1339" width="70.5279" height="69.7322" filterUnits="userSpaceOnUse" color-interpolation-filters="sRGB">
<feFlood flood-opacity="0" result="BackgroundImageFix"/>
<feGaussianBlur in="BackgroundImageFix" stdDeviation="13.9331"/>
<feComposite in2="SourceAlpha" operator="in" result="effect1_backgroundBlur_1_969"/>
<feBlend mode="normal" in="SourceGraphic" in2="effect1_backgroundBlur_1_969" result="shape"/>
</filter>
<filter id="filter7_b_1_969" x="30.8123" y="-13.9308" width="36.0616" height="35.6548" filterUnits="userSpaceOnUse" color-interpolation-filters="sRGB">
<feFlood flood-opacity="0" result="BackgroundImageFix"/>
<feGaussianBlur in="BackgroundImageFix" stdDeviation="7.12411"/>
<feComposite in2="SourceAlpha" operator="in" result="effect1_backgroundBlur_1_969"/>
<feBlend mode="normal" in="SourceGraphic" in2="effect1_backgroundBlur_1_969" result="shape"/>
</filter>
<linearGradient id="paint0_linear_1_969" x1="68.5" y1="11" x2="68.5" y2="98" gradientUnits="userSpaceOnUse">
<stop stop-color="#0E4EAB"/>
<stop offset="1" stop-color="#27C5FF"/>
</linearGradient>
</defs>
</svg>
