<svg width="181" height="180" viewBox="0 0 181 180" fill="none" xmlns="http://www.w3.org/2000/svg">
<path d="M89.8464 45.4034L60.9128 58.2627V77.5518C60.9128 95.3941 73.2578 112.079 89.8464 116.13C106.435 112.079 118.78 95.3941 118.78 77.5518V58.2627L89.8464 45.4034ZM99.7481 93.626L89.8464 87.6785L79.9768 93.626L82.5809 82.374L73.8686 74.8513L85.3778 73.8547L89.8464 63.2457L94.315 73.8226L105.824 74.8192L97.1119 82.374L99.7481 93.626Z" fill="url(#paint0_linear_1_274)"/>
<path d="M14.1257 105.296L4.77612 105.967L4.51762 102.278C4.46792 101.569 4.56102 100.955 4.79691 100.436C5.02975 99.9176 5.37592 99.5104 5.8354 99.2143C6.29163 98.9154 6.83017 98.7436 7.45104 98.699C8.07191 98.6544 8.62912 98.749 9.12267 98.9828C9.61622 99.2165 10.0132 99.5781 10.3136 100.067C10.6138 100.554 10.789 101.156 10.8394 101.874L11.0041 104.226L9.42002 104.339L9.27765 102.308C9.25099 101.927 9.16358 101.618 9.01544 101.381C8.86404 101.141 8.6669 100.969 8.42402 100.864C8.17788 100.756 7.90112 100.713 7.59373 100.735C7.28329 100.758 7.0168 100.84 6.79424 100.981C6.56842 101.12 6.40035 101.318 6.29001 101.577C6.17663 101.836 6.13338 102.157 6.16025 102.541L6.25367 103.874L13.9871 103.319L14.1257 105.296Z" fill="white"/>
<path d="M37.3038 135.709C28.8603 125.945 23.2863 114.033 21.2 101.294C19.1137 88.5548 20.5967 75.4869 25.4845 63.5394C30.3723 51.5919 38.4739 41.2317 48.8907 33.6079C59.3076 25.984 71.6325 21.3944 84.4987 20.3481C97.3649 19.3019 110.269 21.8398 121.781 27.6804C133.293 33.521 142.962 42.4361 149.716 53.4369C156.47 64.4377 160.045 77.0943 160.044 90.0029C160.044 102.912 156.468 115.568 149.713 126.568L147.315 125.096C153.798 114.538 157.23 102.392 157.231 90.0028C157.231 77.6138 153.8 65.4669 147.318 54.909C140.836 44.3511 131.556 35.7949 120.508 30.1895C109.46 24.584 97.0749 22.1483 84.7267 23.1524C72.3786 24.1566 60.5498 28.5614 50.5524 35.8783C40.555 43.1952 32.7796 53.1383 28.0886 64.6048C23.3976 76.0712 21.9743 88.613 23.9765 100.839C25.9788 113.065 31.3284 124.498 39.432 133.869L37.3038 135.709Z" fill="white"/>
<path d="M145.201 125.078C151.535 115.141 155.059 103.675 155.402 91.8967C155.744 80.1182 152.892 68.4666 147.147 58.1785C141.401 47.8904 132.978 39.3496 122.771 33.4624C112.563 27.5753 100.952 24.5614 89.17 24.7406C77.3879 24.9199 65.874 28.2856 55.8503 34.4805C45.8266 40.6754 37.667 49.4685 32.2375 59.9266C26.808 70.3847 24.311 82.1177 25.0116 93.8804C25.7123 105.643 29.5843 116.997 36.2169 126.736L40.6766 123.699C34.5923 114.765 31.0403 104.35 30.3976 93.5596C29.7549 82.7693 32.0454 72.0063 37.0261 62.4127C42.0068 52.8192 49.4918 44.753 58.6869 39.0702C67.8819 33.3874 78.4439 30.3 89.2521 30.1355C100.06 29.9711 110.711 32.7358 120.075 38.1363C129.439 43.5368 137.166 51.3715 142.436 60.8091C147.706 70.2467 150.323 80.9351 150.009 91.7399C149.694 102.545 146.461 113.063 140.651 122.178L145.201 125.078Z" fill="#3085FF"/>
<path d="M27.8483 141.969H153.735L118.637 170.395H61.7854L27.8483 141.969Z" fill="url(#paint1_linear_1_274)"/>
<path d="M23.2073 128.626H158.376L120.69 170.395H59.6467L23.2073 128.626Z" fill="url(#paint2_linear_1_274)"/>
<path d="M12.7651 122.245H168.818L125.31 170.395H54.8346L12.7651 122.245Z" fill="url(#paint3_linear_1_274)"/>
<path d="M180 90C180 139.706 139.706 180 90 180C40.2944 180 0 139.706 0 90C0 40.2944 40.2944 0 90 0C139.706 0 180 40.2944 180 90ZM15.2837 90C15.2837 131.265 48.7353 164.716 90 164.716C131.265 164.716 164.716 131.265 164.716 90C164.716 48.7353 131.265 15.2837 90 15.2837C48.7353 15.2837 15.2837 48.7353 15.2837 90Z" fill="white"/>
<path d="M179.163 89.9997C179.163 139.153 139.316 179 90.1626 179C41.0092 179 1.1626 139.153 1.1626 89.9997C1.1626 40.8463 41.0092 0.999695 90.1626 0.999695C139.316 0.999695 179.163 40.8463 179.163 89.9997ZM16.2765 89.9997C16.2765 130.806 49.3564 163.886 90.1626 163.886C130.969 163.886 164.049 130.806 164.049 89.9997C164.049 49.1935 130.969 16.1136 90.1626 16.1136C49.3564 16.1136 16.2765 49.1935 16.2765 89.9997Z" fill="url(#paint4_linear_1_274)"/>
<path d="M49.1388 135.084H45.8466L45.8615 143.626H43.8746L43.8597 135.084H40.5675L40.5645 133.329H49.1358L49.1388 135.084ZM57.579 141.872L57.582 143.626H50.432L50.4141 133.329H57.4336L57.4366 135.084H52.4186L52.4229 137.564H56.7593L56.7621 139.188H52.4257L52.4304 141.872H57.579ZM58.3255 138.405C58.3244 137.777 58.4345 137.163 58.6559 136.563C58.8868 135.954 59.2195 135.403 59.6537 134.91C60.0879 134.407 60.619 134.011 61.2469 133.721C61.8749 133.421 62.5901 133.271 63.3926 133.271C64.3401 133.271 65.1575 133.479 65.8447 133.895C66.5416 134.311 67.0598 134.852 67.3994 135.519L65.8639 136.578C65.6892 136.191 65.4614 135.887 65.1807 135.664C64.8999 135.432 64.5999 135.273 64.2806 135.186C63.9614 135.089 63.6471 135.041 63.3377 135.041C62.8349 135.041 62.3952 135.142 62.0184 135.345C61.6514 135.548 61.3424 135.814 61.0916 136.143C60.8408 136.472 60.6529 136.839 60.5279 137.245C60.4126 137.651 60.3553 138.057 60.356 138.463C60.3568 138.918 60.4301 139.358 60.5759 139.783C60.7216 140.199 60.9253 140.571 61.1869 140.9C61.4582 141.219 61.7777 141.475 62.1455 141.668C62.5229 141.852 62.934 141.944 63.3787 141.944C63.6978 141.944 64.0216 141.891 64.3501 141.785C64.6787 141.678 64.983 141.509 65.2629 141.277C65.5429 141.045 65.76 140.745 65.914 140.378L67.5545 141.32C67.3523 141.833 67.0195 142.268 66.5561 142.626C66.1023 142.983 65.5903 143.254 65.0202 143.438C64.45 143.622 63.8846 143.713 63.3238 143.713C62.589 143.713 61.9167 143.564 61.3071 143.264C60.6974 142.954 60.1698 142.548 59.7241 142.046C59.2881 141.533 58.9439 140.963 58.6914 140.334C58.4486 139.696 58.3266 139.053 58.3255 138.405ZM77.5411 133.329L77.559 143.626H75.5721L75.5645 139.232H70.8945L70.9021 143.626H68.9007L68.8828 133.329H70.8842L70.8915 137.492H75.5614L75.5542 133.329H77.5411ZM81.6971 137.013L81.7086 143.626H79.7072L79.6893 133.329H81.2846L86.619 140.117L86.6072 133.344H88.6086L88.6266 143.626H86.9587L81.6971 137.013ZM95.1631 143.699C94.409 143.699 93.7222 143.554 93.1029 143.264C92.4933 142.974 91.9657 142.582 91.5201 142.089C91.0841 141.586 90.7447 141.026 90.5019 140.407C90.2591 139.778 90.1371 139.135 90.136 138.478C90.1348 137.791 90.2593 137.139 90.5097 136.52C90.7696 135.891 91.1216 135.335 91.5655 134.852C92.019 134.359 92.5501 133.972 93.1588 133.692C93.7771 133.402 94.4536 133.257 95.1885 133.257C95.9329 133.257 96.61 133.407 97.2197 133.706C97.839 134.006 98.3666 134.407 98.8026 134.91C99.2386 135.413 99.5779 135.974 99.8207 136.592C100.064 137.211 100.185 137.849 100.187 138.507C100.188 139.184 100.063 139.836 99.813 140.465C99.5627 141.084 99.2107 141.639 98.7572 142.133C98.3132 142.616 97.7821 142.998 97.1638 143.278C96.5552 143.559 95.8883 143.699 95.1631 143.699ZM92.1664 138.478C92.1672 138.923 92.2356 139.353 92.3717 139.769C92.5078 140.184 92.7018 140.557 92.9538 140.885C93.2154 141.204 93.5301 141.461 93.8978 141.654C94.2752 141.838 94.7008 141.93 95.1746 141.93C95.658 141.93 96.0881 141.833 96.4648 141.639C96.8415 141.436 97.1553 141.171 97.4061 140.842C97.6569 140.503 97.8448 140.131 97.9698 139.725C98.1044 139.309 98.1714 138.894 98.1707 138.478C98.1699 138.033 98.0966 137.608 97.9509 137.202C97.8148 136.786 97.616 136.418 97.3544 136.099C97.1024 135.771 96.7877 135.514 96.4103 135.331C96.0426 135.137 95.6267 135.041 95.1626 135.041C94.6695 135.041 94.2345 135.142 93.8578 135.345C93.4907 135.539 93.1818 135.8 92.931 136.128C92.6802 136.457 92.4874 136.824 92.3528 137.231C92.2278 137.637 92.1657 138.052 92.1664 138.478ZM101.731 143.626L101.713 133.329H103.714L103.729 141.872H108.979L108.982 143.626H101.731ZM114.368 143.699C113.614 143.699 112.927 143.554 112.308 143.264C111.698 142.974 111.171 142.582 110.725 142.089C110.289 141.586 109.95 141.026 109.707 140.407C109.464 139.778 109.342 139.135 109.341 138.478C109.34 137.791 109.465 137.139 109.715 136.52C109.975 135.891 110.327 135.335 110.771 134.852C111.224 134.359 111.755 133.972 112.364 133.692C112.982 133.402 113.659 133.257 114.394 133.257C115.138 133.257 115.815 133.407 116.425 133.706C117.044 134.006 117.572 134.407 118.008 134.91C118.444 135.413 118.783 135.974 119.026 136.592C119.269 137.211 119.391 137.849 119.392 138.507C119.393 139.184 119.268 139.836 119.018 140.465C118.768 141.084 118.416 141.639 117.962 142.133C117.518 142.616 116.987 142.998 116.369 143.278C115.76 143.559 115.093 143.699 114.368 143.699ZM111.372 138.478C111.372 138.923 111.441 139.353 111.577 139.769C111.713 140.184 111.907 140.557 112.159 140.885C112.421 141.204 112.735 141.461 113.103 141.654C113.48 141.838 113.906 141.93 114.38 141.93C114.863 141.93 115.293 141.833 115.67 141.639C116.047 141.436 116.36 141.171 116.611 140.842C116.862 140.503 117.05 140.131 117.175 139.725C117.31 139.309 117.377 138.894 117.376 138.478C117.375 138.033 117.302 137.608 117.156 137.202C117.02 136.786 116.821 136.418 116.56 136.099C116.308 135.771 115.993 135.514 115.616 135.331C115.248 135.137 114.832 135.041 114.368 135.041C113.875 135.041 113.44 135.142 113.063 135.345C112.696 135.539 112.387 135.8 112.136 136.128C111.885 136.457 111.693 136.824 111.558 137.231C111.433 137.637 111.371 138.052 111.372 138.478ZM125.215 143.699C124.547 143.699 123.914 143.564 123.314 143.293C122.724 143.022 122.201 142.65 121.746 142.176C121.3 141.693 120.951 141.132 120.699 140.494C120.446 139.856 120.319 139.164 120.318 138.42C120.317 137.714 120.441 137.052 120.691 136.433C120.942 135.804 121.294 135.253 121.747 134.78C122.201 134.306 122.732 133.934 123.341 133.663C123.949 133.392 124.611 133.257 125.327 133.257C126.294 133.257 127.121 133.465 127.808 133.88C128.505 134.286 129.028 134.828 129.377 135.505L127.885 136.607C127.623 136.094 127.255 135.703 126.781 135.432C126.316 135.161 125.809 135.026 125.257 135.026C124.822 135.026 124.426 135.118 124.069 135.302C123.711 135.485 123.402 135.737 123.142 136.056C122.881 136.375 122.679 136.742 122.535 137.158C122.4 137.574 122.333 138.014 122.334 138.478C122.335 138.971 122.408 139.425 122.554 139.841C122.709 140.257 122.923 140.619 123.194 140.929C123.475 141.238 123.799 141.485 124.167 141.668C124.535 141.843 124.941 141.93 125.386 141.93C125.908 141.93 126.405 141.794 126.879 141.523C127.362 141.253 127.81 140.856 128.225 140.334L128.229 142.307C127.37 143.235 126.365 143.699 125.215 143.699ZM128.079 139.798H126.005L126.003 138.333H129.73L129.739 143.626H128.086L128.079 139.798ZM132.049 133.329L134.596 138.173L137.169 133.329H139.33L135.6 140.03L135.606 143.626H133.619L133.613 140.001L129.874 133.329H132.049ZM58.6318 150.329H60.6623L64.4655 160.626H62.4061L61.4444 158.059H57.8476L56.9094 160.626H54.85L58.6318 150.329ZM61.0794 156.653L59.6507 152.403L58.1788 156.653H61.0794ZM65.5949 160.626L65.577 150.329H67.5784L67.5933 158.871H72.8434L72.8464 160.626H65.5949ZM74.0645 160.626L74.0465 150.329H76.0479L76.0628 158.871H81.3129L81.316 160.626H74.0645ZM82.534 160.626L82.5161 150.329H84.5175L84.5354 160.626H82.534ZM89.465 150.329H91.4954L95.2986 160.626H93.2392L92.2775 158.059H88.6807L87.7425 160.626H85.6831L89.465 150.329ZM91.9125 156.653L90.4838 152.403L89.0119 156.653H91.9125ZM98.4179 154.013L98.4294 160.626H96.428L96.4101 150.329H98.0054L103.34 157.117L103.328 150.344H105.329L105.347 160.626H103.68L98.4179 154.013ZM106.857 155.405C106.856 154.777 106.966 154.163 107.187 153.563C107.418 152.954 107.751 152.403 108.185 151.91C108.619 151.407 109.15 151.011 109.778 150.721C110.406 150.421 111.121 150.271 111.924 150.271C112.871 150.271 113.689 150.479 114.376 150.895C115.073 151.311 115.591 151.852 115.931 152.519L114.395 153.578C114.22 153.191 113.993 152.887 113.712 152.664C113.431 152.432 113.131 152.273 112.812 152.186C112.493 152.089 112.178 152.041 111.869 152.041C111.366 152.041 110.926 152.142 110.55 152.345C110.183 152.548 109.874 152.814 109.623 153.143C109.372 153.472 109.184 153.839 109.059 154.245C108.944 154.651 108.887 155.057 108.887 155.463C108.888 155.918 108.961 156.358 109.107 156.783C109.253 157.199 109.457 157.571 109.718 157.9C109.989 158.219 110.309 158.475 110.677 158.668C111.054 158.852 111.465 158.944 111.91 158.944C112.229 158.944 112.553 158.891 112.881 158.784C113.21 158.678 113.514 158.509 113.794 158.277C114.074 158.045 114.291 157.745 114.445 157.378L116.086 158.32C115.884 158.833 115.551 159.268 115.087 159.626C114.633 159.983 114.121 160.254 113.551 160.438C112.981 160.622 112.416 160.713 111.855 160.713C111.12 160.713 110.448 160.564 109.838 160.264C109.229 159.954 108.701 159.548 108.255 159.046C107.819 158.533 107.475 157.963 107.223 157.334C106.98 156.696 106.858 156.053 106.857 155.405ZM124.579 158.871L124.582 160.626H117.432L117.414 150.329H124.433L124.437 152.084H119.418L119.423 154.564H123.759L123.762 156.188H119.426L119.43 158.871H124.579Z" fill="white"/>
<path d="M13.3668 85.2956L13.0149 87.3899L4.31339 82.6079L4.73656 80.0893L14.5096 78.4934L14.1577 80.5878L6.64199 81.676L6.62986 81.7482L13.3668 85.2956ZM9.71376 84.8012L10.5449 79.8541L12.0695 80.1167L11.2383 85.0637L9.71376 84.8012Z" fill="white"/>
<path d="M16.5464 68.149L7.98331 64.3361L9.45683 60.9442C9.73889 60.2949 10.0953 59.7923 10.526 59.4363C10.9552 59.0763 11.4325 58.8697 11.958 58.8164C12.4819 58.7591 13.0268 58.8564 13.5926 59.1084C14.1613 59.3616 14.597 59.7026 14.8997 60.1313C15.1997 60.5588 15.3569 61.0546 15.3713 61.6188C15.3869 62.1802 15.2512 62.7911 14.9643 63.4516L13.9777 65.7227L12.5227 65.0748L13.3816 63.0976C13.5324 62.7505 13.6102 62.4412 13.6151 62.1695C13.62 61.8978 13.552 61.6638 13.4111 61.4674C13.2714 61.2683 13.0608 61.106 12.7793 60.9807C12.495 60.8541 12.2303 60.8047 11.9853 60.8326C11.7416 60.8576 11.5191 60.964 11.3178 61.1516C11.115 61.3351 10.9376 61.6018 10.7856 61.9517L10.2531 63.1775L17.3361 66.3313L16.5464 68.149ZM14.6665 61.7709L19.4916 61.3693L18.6199 63.3759L13.8149 63.7313L14.6665 61.7709Z" fill="white"/>
<path d="M18.0534 46.5814L16.7515 45.5939L21.331 39.4057L22.6329 40.3931L20.9258 42.6999L27.0922 47.3773L25.9269 48.9519L19.7605 44.2746L18.0534 46.5814Z" fill="white"/>
<path d="M34.4519 25.3321L40.3714 32.6002L39.0573 33.6972L32.201 31.7361L32.1483 31.7801L35.8739 36.3546L34.3525 37.6246L28.4331 30.3565L29.7683 29.2419L36.5971 31.22L36.6603 31.1672L32.9376 26.5963L34.4519 25.3321Z" fill="white"/>
<path d="M50.4171 24.7871L46.4706 16.2847L52.1742 13.5712L52.8621 15.0533L48.9481 16.9154L49.8885 18.9413L53.5091 17.2188L54.197 18.7009L50.5764 20.4234L51.5187 22.4535L55.4493 20.5836L56.1372 22.0657L50.4171 24.7871Z" fill="white"/>
<path d="M66.8942 17.2167L65.0794 8.02039L68.7041 7.2872C69.398 7.14685 70.0147 7.15131 70.5542 7.30057C71.0961 7.44622 71.5403 7.71905 71.8867 8.11906C72.2355 8.51546 72.4698 9.01752 72.5898 9.62521C72.7103 10.2359 72.6824 10.7879 72.506 11.2812C72.3291 11.7715 72.0139 12.1839 71.5606 12.5184C71.1102 12.8523 70.5321 13.0907 69.8263 13.2334L67.3993 13.7244L67.0909 12.1617L69.2039 11.7343C69.5747 11.6593 69.8727 11.5461 70.0979 11.3947C70.323 11.2433 70.4753 11.0538 70.5548 10.826C70.6372 10.5976 70.6486 10.3323 70.589 10.0299C70.5287 9.72457 70.4166 9.47953 70.2526 9.29478C70.0916 9.10943 69.8764 8.98797 69.6069 8.93041C69.3398 8.86926 69.0193 8.87649 68.6455 8.9521L67.3355 9.21707L68.8367 16.8237L66.8942 17.2167ZM71.0299 12.028L74.1392 15.7512L71.9949 16.1849L68.9349 12.4518L71.0299 12.028Z" fill="white"/>
<path d="M96.5802 13.9305L98.3125 4.71835L101.944 5.41826C102.642 5.55282 103.212 5.80089 103.653 6.16249C104.095 6.52109 104.4 6.96062 104.569 7.48109C104.742 7.99913 104.771 8.56403 104.656 9.17577C104.541 9.78752 104.307 10.3019 103.956 10.7189C103.604 11.1359 103.153 11.4266 102.604 11.591C102.058 11.7561 101.431 11.7704 100.724 11.6341L98.4092 11.188L98.7027 9.62718L100.703 10.0127C101.077 10.0848 101.398 10.0798 101.665 9.99768C101.935 9.91309 102.152 9.76689 102.315 9.55908C102.482 9.34886 102.594 9.09231 102.651 8.78943C102.709 8.48356 102.697 8.20483 102.617 7.95325C102.541 7.69925 102.392 7.4856 102.17 7.3123C101.948 7.136 101.649 7.01146 101.271 6.9387L99.9591 6.68576L98.5262 14.3056L96.5802 13.9305Z" fill="white"/>
<path d="M114.923 17.8056L118.829 9.28464L122.176 10.8573C122.817 11.1584 123.311 11.5304 123.658 11.9734C124.01 12.415 124.208 12.901 124.253 13.4314C124.303 13.9603 124.199 14.5064 123.941 15.0694C123.681 15.6353 123.337 16.065 122.907 16.3585C122.478 16.6493 121.983 16.7945 121.423 16.7942C120.865 16.7951 120.261 16.6425 119.609 16.3363L117.368 15.2833L118.032 13.8354L119.983 14.7521C120.325 14.913 120.631 14.9995 120.901 15.0116C121.171 15.0237 121.404 14.9614 121.601 14.8247C121.801 14.6893 121.965 14.4815 122.093 14.2013C122.223 13.9184 122.275 13.6533 122.251 13.4059C122.23 13.1598 122.127 12.933 121.944 12.7255C121.765 12.5164 121.502 12.3308 121.157 12.1686L119.947 11.6003L116.716 18.6484L114.923 17.8056ZM121.282 16.0806L121.613 20.949L119.633 20.0187L119.347 15.1716L121.282 16.0806Z" fill="white"/>
<path d="M141.643 28.086C140.994 28.8759 140.294 29.423 139.542 29.7275C138.793 30.034 138.044 30.1191 137.295 29.9831C136.55 29.8466 135.862 29.5121 135.229 28.9795C134.592 28.4429 134.14 27.8153 133.874 27.0964C133.607 26.3776 133.555 25.6173 133.716 24.8156C133.877 24.0139 134.281 23.2193 134.928 22.4318C135.577 21.642 136.276 21.0938 137.025 20.7874C137.774 20.4809 138.521 20.3959 139.266 20.5324C140.013 20.6665 140.705 21.0018 141.342 21.5384C141.974 22.071 142.424 22.6967 142.69 23.4155C142.961 24.1339 143.015 24.894 142.854 25.6957C142.696 26.4994 142.292 27.2962 141.643 28.086ZM140.106 26.7919C140.526 26.2802 140.805 25.7849 140.942 25.3058C141.081 24.8287 141.089 24.3844 140.965 23.973C140.841 23.5615 140.595 23.2014 140.229 22.8929C139.863 22.5843 139.468 22.4059 139.046 22.3575C138.624 22.3091 138.193 22.3967 137.752 22.6202C137.314 22.8457 136.885 23.2143 136.465 23.726C136.044 24.2376 135.765 24.732 135.626 25.2091C135.489 25.6881 135.482 26.1334 135.606 26.5449C135.73 26.9564 135.975 27.3164 136.342 27.6249C136.708 27.9335 137.103 28.112 137.525 28.1603C137.947 28.2087 138.377 28.1202 138.815 27.8946C139.255 27.6711 139.686 27.3035 140.106 26.7919Z" fill="white"/>
<path d="M156.591 41.4898C156.736 41.3079 156.845 41.1198 156.918 40.9254C156.993 40.7293 157.032 40.5278 157.033 40.3209C157.038 40.1148 157.006 39.9055 156.936 39.6929C156.868 39.4829 156.761 39.2727 156.615 39.0622C156.341 38.6689 156.004 38.3923 155.603 38.2323C155.203 38.0748 154.761 38.0454 154.276 38.1439C153.793 38.2407 153.286 38.4786 152.754 38.8576C152.222 39.2366 151.827 39.6403 151.567 40.0688C151.308 40.4973 151.184 40.9305 151.195 41.3686C151.208 41.8048 151.356 42.2259 151.638 42.6317C151.894 43 152.177 43.2683 152.488 43.4367C152.802 43.6059 153.127 43.6744 153.461 43.6422C153.797 43.6124 154.128 43.4816 154.454 43.2496L154.635 43.6148L153.255 41.6307L154.47 40.7647L156.71 43.985L155.748 44.6704C155.077 45.1486 154.402 45.4167 153.721 45.4747C153.043 45.5309 152.399 45.4015 151.79 45.0864C151.183 44.7695 150.655 44.288 150.205 43.6416C149.704 42.9202 149.421 42.1739 149.357 41.4029C149.295 40.63 149.45 39.8827 149.821 39.1609C150.197 38.4398 150.787 37.7924 151.592 37.2186C152.211 36.7776 152.825 36.4746 153.435 36.3096C154.049 36.1454 154.639 36.1069 155.206 36.1942C155.772 36.2815 156.294 36.4803 156.774 36.7904C157.254 37.1006 157.67 37.5099 158.024 38.0185C158.327 38.4544 158.546 38.9053 158.68 39.3714C158.817 39.8358 158.873 40.2947 158.846 40.7482C158.821 41.2043 158.716 41.6374 158.529 42.0477C158.345 42.4563 158.082 42.8214 157.741 43.1432L156.591 41.4898Z" fill="white"/>
<path d="M158.932 56.6812L167.687 53.3345L168.98 56.7996C169.227 57.4629 169.32 58.0742 169.258 58.6335C169.2 59.1945 169.002 59.6803 168.663 60.0906C168.329 60.5028 167.872 60.8194 167.293 61.0406C166.712 61.2628 166.165 61.3282 165.652 61.2368C165.142 61.1443 164.687 60.9017 164.286 60.5093C163.887 60.1197 163.562 59.5875 163.31 58.9128L162.445 56.5927L163.933 56.024L164.686 58.0439C164.818 58.3984 164.976 58.6744 165.161 58.8718C165.345 59.0692 165.555 59.188 165.792 59.2283C166.029 59.2714 166.292 59.238 166.58 59.1279C166.871 59.0168 167.094 58.8645 167.25 58.671C167.407 58.4804 167.492 58.2468 167.506 57.9703C167.524 57.6956 167.467 57.3795 167.333 57.0222L166.866 55.7699L159.624 58.5381L158.932 56.6812ZM164.685 59.9013L161.514 63.6071L160.75 61.5572L163.938 57.8985L164.685 59.9013Z" fill="white"/>
<path d="M165.474 76.3129L165.234 74.2027L174.91 76.334L175.199 78.8716L166.252 83.1663L166.013 81.0561L172.931 77.8869L172.923 77.8141L165.474 76.3129ZM169.119 75.7549L169.685 80.7392L168.148 80.9181L167.582 75.9338L169.119 75.7549Z" fill="white"/>
<path d="M176.621 95.4276L176.245 97.8425L169.628 99.3993L169.611 99.5078L175.433 103.052L175.056 105.467L165.8 103.988L166.096 102.089L172.121 103.051L172.133 102.975L166.527 99.6221L166.729 98.3287L173.104 96.8911L173.116 96.8142L167.069 95.8478L167.365 93.9484L176.621 95.4276Z" fill="white"/>
<path d="M15.5262 104.869L6.21998 105.991L5.76227 102.321C5.67428 101.616 5.73412 100.999 5.9418 100.47C6.14645 99.9409 6.47034 99.5177 6.91347 99.1999C7.35319 98.8795 7.88205 98.6821 8.50004 98.6076C9.11803 98.533 9.67993 98.6005 10.1857 98.81C10.6916 99.0194 11.1078 99.3611 11.4344 99.835C11.7606 100.306 11.9683 100.899 12.0575 101.613L12.3492 103.952L10.7724 104.142L10.5203 102.121C10.4731 101.743 10.3691 101.439 10.2082 101.209C10.044 100.977 9.83767 100.814 9.5893 100.721C9.33753 100.626 9.05866 100.596 8.75269 100.633C8.4437 100.67 8.18182 100.765 7.96708 100.917C7.74892 101.066 7.59171 101.273 7.49545 101.536C7.39615 101.8 7.37029 102.123 7.41788 102.504L7.58329 103.831L15.2809 102.902L15.5262 104.869Z" fill="white"/>
<defs>
<linearGradient id="paint0_linear_1_274" x1="51" y1="63.4999" x2="119" y2="116" gradientUnits="userSpaceOnUse">
<stop stop-color="#0F3598"/>
<stop offset="1" stop-color="#5EC7FF"/>
</linearGradient>
<linearGradient id="paint1_linear_1_274" x1="46.1221" y1="150.381" x2="134.01" y2="150.381" gradientUnits="userSpaceOnUse">
<stop stop-color="#05459B"/>
<stop offset="0.285" stop-color="#034193"/>
<stop offset="0.700958" stop-color="#034193"/>
<stop offset="1" stop-color="#05459A"/>
</linearGradient>
<linearGradient id="paint2_linear_1_274" x1="42.8285" y1="140.987" x2="137.197" y2="140.987" gradientUnits="userSpaceOnUse">
<stop stop-color="#05459B"/>
<stop offset="0.285" stop-color="#034193"/>
<stop offset="0.700958" stop-color="#034193"/>
<stop offset="1" stop-color="#05459A"/>
</linearGradient>
<linearGradient id="paint3_linear_1_274" x1="35.4179" y1="136.494" x2="144.367" y2="136.494" gradientUnits="userSpaceOnUse">
<stop stop-color="#05459B"/>
<stop offset="0.285" stop-color="#034193"/>
<stop offset="0.700958" stop-color="#034193"/>
<stop offset="1" stop-color="#05459A"/>
</linearGradient>
<linearGradient id="paint4_linear_1_274" x1="90.1626" y1="0.999695" x2="90.1626" y2="179" gradientUnits="userSpaceOnUse">
<stop stop-color="#1C6FE7"/>
<stop offset="1" stop-color="#003C8A"/>
</linearGradient>
</defs>
</svg>