<svg width="181" height="180" viewBox="0 0 181 180" fill="none" xmlns="http://www.w3.org/2000/svg">
<path d="M89.8464 45.4034L60.9128 58.2627V77.5518C60.9128 95.3941 73.2578 112.079 89.8464 116.13C106.435 112.079 118.78 95.3941 118.78 77.5518V58.2627L89.8464 45.4034ZM99.7481 93.626L89.8464 87.6785L79.9768 93.626L82.5809 82.374L73.8686 74.8513L85.3778 73.8547L89.8464 63.2457L94.315 73.8226L105.824 74.8192L97.1119 82.374L99.7481 93.626Z" fill="url(#paint0_linear_1_341)"/>
<path d="M14.1256 105.296L4.77606 105.967L4.51755 102.278C4.46786 101.569 4.56096 100.955 4.79685 100.436C5.02969 99.9176 5.37586 99.5104 5.83534 99.2143C6.29156 98.9154 6.83011 98.7436 7.45098 98.699C8.07185 98.6544 8.62906 98.749 9.12261 98.9828C9.61616 99.2165 10.0131 99.5781 10.3135 100.067C10.6137 100.554 10.789 101.156 10.8393 101.874L11.0041 104.226L9.41995 104.339L9.27759 102.308C9.25093 101.927 9.16352 101.618 9.01538 101.381C8.86398 101.141 8.66683 100.969 8.42396 100.864C8.17782 100.756 7.90106 100.713 7.59367 100.735C7.28323 100.758 7.01674 100.84 6.79418 100.981C6.56836 101.12 6.40029 101.318 6.28995 101.577C6.17657 101.836 6.13332 102.157 6.16019 102.541L6.25361 103.874L13.9871 103.319L14.1256 105.296Z" fill="white"/>
<path d="M37.3039 135.709C28.8603 125.945 23.2863 114.033 21.2001 101.294C19.1138 88.5548 20.5968 75.4869 25.4846 63.5394C30.3724 51.5919 38.474 41.2317 48.8908 33.6079C59.3076 25.984 71.6326 21.3944 84.4988 20.3481C97.365 19.3019 110.27 21.8398 121.781 27.6804C133.293 33.521 142.962 42.4361 149.716 53.4369C156.47 64.4377 160.045 77.0943 160.044 90.0029C160.044 102.912 156.468 115.568 149.713 126.568L147.315 125.096C153.798 114.538 157.23 102.392 157.231 90.0028C157.231 77.6138 153.8 65.4669 147.318 54.909C140.836 44.3511 131.557 35.7949 120.508 30.1895C109.46 24.584 97.075 22.1483 84.7268 23.1524C72.3786 24.1566 60.5499 28.5614 50.5525 35.8783C40.555 43.1952 32.7797 53.1383 28.0886 64.6048C23.3976 76.0712 21.9743 88.613 23.9766 100.839C25.9789 113.065 31.3285 124.498 39.432 133.869L37.3039 135.709Z" fill="white"/>
<path d="M145.201 125.078C151.535 115.141 155.059 103.675 155.402 91.8967C155.744 80.1182 152.892 68.4666 147.147 58.1785C141.401 47.8904 132.978 39.3496 122.771 33.4624C112.563 27.5753 100.952 24.5614 89.1701 24.7406C77.3879 24.9199 65.8741 28.2856 55.8504 34.4805C45.8267 40.6754 37.6671 49.4685 32.2376 59.9266C26.808 70.3847 24.3111 82.1177 25.0117 93.8804C25.7123 105.643 29.5844 116.997 36.217 126.736L40.6766 123.699C34.5924 114.765 31.0404 104.35 30.3977 93.5596C29.755 82.7693 32.0455 72.0063 37.0262 62.4127C42.0069 52.8192 49.4919 44.753 58.6869 39.0702C67.882 33.3874 78.444 30.3 89.2522 30.1355C100.06 29.9711 110.711 32.7358 120.075 38.1363C129.439 43.5368 137.166 51.3715 142.436 60.8091C147.706 70.2467 150.323 80.9351 150.009 91.7399C149.695 102.545 146.461 113.063 140.651 122.178L145.201 125.078Z" fill="#3085FF"/>
<path d="M27.8483 141.969H153.735L118.637 170.395H61.7854L27.8483 141.969Z" fill="url(#paint1_linear_1_341)"/>
<path d="M23.2073 128.626H158.376L120.69 170.395H59.6467L23.2073 128.626Z" fill="url(#paint2_linear_1_341)"/>
<path d="M12.7651 122.245H168.818L125.31 170.395H54.8346L12.7651 122.245Z" fill="url(#paint3_linear_1_341)"/>
<path d="M180 90C180 139.706 139.706 180 90 180C40.2944 180 0 139.706 0 90C0 40.2944 40.2944 0 90 0C139.706 0 180 40.2944 180 90ZM15.2837 90C15.2837 131.265 48.7353 164.716 90 164.716C131.265 164.716 164.716 131.265 164.716 90C164.716 48.7353 131.265 15.2837 90 15.2837C48.7353 15.2837 15.2837 48.7353 15.2837 90Z" fill="white"/>
<path d="M179.163 89.9997C179.163 139.153 139.316 179 90.1626 179C41.0092 179 1.1626 139.153 1.1626 89.9997C1.1626 40.8463 41.0092 0.999695 90.1626 0.999695C139.316 0.999695 179.163 40.8463 179.163 89.9997ZM16.2765 89.9997C16.2765 130.806 49.3564 163.886 90.1626 163.886C130.969 163.886 164.049 130.806 164.049 89.9997C164.049 49.1935 130.969 16.1136 90.1626 16.1136C49.3564 16.1136 16.2765 49.1935 16.2765 89.9997Z" fill="url(#paint4_linear_1_341)"/>
<path d="M42.7619 151.626L42.7371 137.426H49.0171C49.6705 137.426 50.2707 137.56 50.8178 137.826C51.3783 138.093 51.8589 138.453 52.2597 138.906C52.6738 139.36 52.9881 139.866 53.2024 140.426C53.43 140.986 53.5443 141.56 53.5454 142.146C53.5464 142.746 53.4407 143.326 53.2284 143.886C53.0293 144.433 52.7368 144.913 52.3509 145.326C51.9649 145.74 51.5122 146.06 50.9926 146.286L54.2419 151.626H51.2019L48.2736 146.866H45.5136L45.5219 151.626H42.7619ZM45.5094 144.446H48.9694C49.316 144.446 49.6225 144.346 49.8888 144.146C50.1551 143.933 50.368 143.653 50.5274 143.306C50.6868 142.96 50.7661 142.573 50.7654 142.146C50.7646 141.693 50.6706 141.3 50.4833 140.966C50.296 140.62 50.0556 140.346 49.7619 140.146C49.4815 139.946 49.1747 139.846 48.8414 139.846H45.5014L45.5094 144.446ZM65.9184 149.206L65.9226 151.626H56.0626L56.0379 137.426H65.7179L65.7221 139.846H58.8021L58.8081 143.266H64.7881L64.792 145.506H58.812L58.8184 149.206H65.9184ZM76.5161 141.146C76.4226 141.053 76.2491 140.926 75.9955 140.766C75.7552 140.606 75.4549 140.453 75.0947 140.306C74.7477 140.16 74.3675 140.033 73.954 139.926C73.5404 139.806 73.1203 139.746 72.6937 139.746C71.947 139.746 71.3806 139.886 70.9944 140.166C70.6216 140.446 70.4356 140.84 70.4365 141.346C70.4371 141.733 70.5577 142.04 70.7981 142.266C71.0385 142.493 71.3988 142.686 71.8791 142.846C72.3594 143.006 72.9597 143.18 73.68 143.366C74.6137 143.593 75.4209 143.873 76.1014 144.206C76.7953 144.526 77.3227 144.953 77.6837 145.486C78.0579 146.006 78.2458 146.7 78.2473 147.566C78.2486 148.326 78.1098 148.98 77.8307 149.526C77.5516 150.06 77.1657 150.493 76.673 150.826C76.1802 151.16 75.6207 151.406 74.9943 151.566C74.3679 151.713 73.7013 151.786 72.9946 151.786C72.288 151.786 71.5812 151.713 70.8743 151.566C70.1673 151.42 69.487 151.213 68.8332 150.946C68.1794 150.666 67.5788 150.333 67.0314 149.946L68.2473 147.566C68.3675 147.686 68.5811 147.846 68.8881 148.046C69.1951 148.233 69.5688 148.426 70.0091 148.626C70.4495 148.813 70.9297 148.973 71.45 149.106C71.9702 149.24 72.497 149.306 73.0303 149.306C73.777 149.306 74.3434 149.18 74.7297 148.926C75.1159 148.673 75.3086 148.313 75.3078 147.846C75.307 147.42 75.1531 147.086 74.846 146.846C74.539 146.606 74.1119 146.4 73.565 146.226C73.018 146.04 72.371 145.84 71.6239 145.626C70.7301 145.373 69.983 145.093 69.3825 144.786C68.7819 144.466 68.3345 144.066 68.0404 143.586C67.7462 143.106 67.5985 142.506 67.5972 141.786C67.5955 140.813 67.8208 140 68.273 139.346C68.7385 138.68 69.3643 138.18 70.1504 137.846C70.9364 137.5 71.8095 137.326 72.7695 137.326C73.4361 137.326 74.0629 137.4 74.6498 137.546C75.2501 137.693 75.8104 137.886 76.3309 138.126C76.8513 138.366 77.3184 138.626 77.7322 138.906L76.5161 141.146ZM90.1958 149.206L90.2 151.626H80.34L80.3153 137.426H89.9953L89.9995 139.846H83.0795L83.0854 143.266H89.0654L89.0693 145.506H83.0893L83.0958 149.206H90.1958ZM92.3517 151.626L92.327 137.426H95.087L95.1075 149.206H102.347L102.352 151.626H92.3517ZM104.031 151.626L104.007 137.426H106.767L106.787 149.206H114.027L114.031 151.626H104.031ZM125.567 149.206L125.571 151.626H115.711L115.686 137.426H125.366L125.371 139.846H118.451L118.457 143.266H124.437L124.44 145.506H118.46L118.467 149.206H125.567ZM127.723 151.626L127.698 137.426H133.978C134.631 137.426 135.232 137.56 135.779 137.826C136.339 138.093 136.82 138.453 137.221 138.906C137.635 139.36 137.949 139.866 138.163 140.426C138.391 140.986 138.505 141.56 138.506 142.146C138.507 142.746 138.402 143.326 138.189 143.886C137.99 144.433 137.698 144.913 137.312 145.326C136.926 145.74 136.473 146.06 135.954 146.286L139.203 151.626H136.163L133.235 146.866H130.475L130.483 151.626H127.723ZM130.47 144.446H133.93C134.277 144.446 134.583 144.346 134.85 144.146C135.116 143.933 135.329 143.653 135.488 143.306C135.648 142.96 135.727 142.573 135.726 142.146C135.726 141.693 135.631 141.3 135.444 140.966C135.257 140.62 135.016 140.346 134.723 140.146C134.442 139.946 134.136 139.846 133.802 139.846H130.462L130.47 144.446Z" fill="white"/>
<path d="M13.3667 85.2956L13.0148 87.3899L4.31333 82.6079L4.7365 80.0893L14.5095 78.4934L14.1577 80.5878L6.64193 81.676L6.62979 81.7482L13.3667 85.2956ZM9.7137 84.8012L10.5449 79.8541L12.0694 80.1167L11.2383 85.0637L9.7137 84.8012Z" fill="white"/>
<path d="M16.5465 68.149L7.98338 64.3361L9.45689 60.9442C9.73895 60.2949 10.0954 59.7923 10.5261 59.4363C10.9553 59.0763 11.4326 58.8697 11.9581 58.8164C12.482 58.7591 13.0268 58.8564 13.5927 59.1084C14.1613 59.3616 14.597 59.7026 14.8998 60.1313C15.1998 60.5588 15.357 61.0546 15.3714 61.6188C15.387 62.1802 15.2513 62.7911 14.9644 63.4516L13.9778 65.7227L12.5227 65.0748L13.3817 63.0976C13.5324 62.7505 13.6103 62.4412 13.6152 62.1695C13.6201 61.8978 13.5521 61.6638 13.4112 61.4674C13.2715 61.2683 13.0609 61.106 12.7793 60.9807C12.495 60.8541 12.2304 60.8047 11.9854 60.8326C11.7416 60.8576 11.5191 60.964 11.3179 61.1516C11.115 61.3351 10.9376 61.6018 10.7857 61.9517L10.2532 63.1775L17.3361 66.3313L16.5465 68.149ZM14.6666 61.7709L19.4917 61.3693L18.62 63.3759L13.8149 63.7313L14.6666 61.7709Z" fill="white"/>
<path d="M18.0533 46.5814L16.7515 45.5939L21.331 39.4057L22.6328 40.3931L20.9257 42.6999L27.0921 47.3773L25.9268 48.9519L19.7604 44.2746L18.0533 46.5814Z" fill="white"/>
<path d="M34.4519 25.3321L40.3713 32.6002L39.0572 33.6972L32.2009 31.7361L32.1482 31.7801L35.8739 36.3546L34.3525 37.6246L28.4331 30.3565L29.7682 29.2419L36.597 31.22L36.6603 31.1672L32.9375 26.5963L34.4519 25.3321Z" fill="white"/>
<path d="M50.4171 24.7871L46.4706 16.2847L52.1742 13.5712L52.8621 15.0533L48.9481 16.9154L49.8885 18.9413L53.5091 17.2188L54.197 18.7009L50.5764 20.4234L51.5187 22.4535L55.4493 20.5836L56.1372 22.0657L50.4171 24.7871Z" fill="white"/>
<path d="M66.8942 17.2167L65.0794 8.02039L68.7041 7.2872C69.398 7.14685 70.0147 7.15131 70.5542 7.30057C71.0961 7.44622 71.5403 7.71905 71.8867 8.11906C72.2355 8.51546 72.4698 9.01752 72.5898 9.62521C72.7103 10.2359 72.6824 10.7879 72.506 11.2812C72.3291 11.7715 72.0139 12.1839 71.5606 12.5184C71.1102 12.8523 70.5321 13.0907 69.8263 13.2334L67.3993 13.7244L67.0909 12.1617L69.2039 11.7343C69.5747 11.6593 69.8727 11.5461 70.0979 11.3947C70.323 11.2433 70.4753 11.0538 70.5548 10.826C70.6372 10.5976 70.6486 10.3323 70.589 10.0299C70.5287 9.72457 70.4166 9.47953 70.2526 9.29478C70.0916 9.10943 69.8764 8.98797 69.6069 8.93041C69.3398 8.86926 69.0193 8.87649 68.6455 8.9521L67.3355 9.21707L68.8367 16.8237L66.8942 17.2167ZM71.0299 12.028L74.1392 15.7512L71.9949 16.1849L68.9349 12.4518L71.0299 12.028Z" fill="white"/>
<path d="M96.5801 13.9305L98.3124 4.71835L101.944 5.41826C102.642 5.55282 103.212 5.80089 103.653 6.16249C104.094 6.52109 104.4 6.96062 104.569 7.48109C104.742 7.99913 104.771 8.56403 104.656 9.17577C104.54 9.78752 104.307 10.3019 103.956 10.7189C103.604 11.1359 103.153 11.4266 102.604 11.591C102.058 11.7561 101.431 11.7704 100.724 11.6341L98.4091 11.188L98.7026 9.62718L100.703 10.0127C101.077 10.0848 101.398 10.0798 101.665 9.99768C101.935 9.91309 102.152 9.76689 102.315 9.55908C102.482 9.34886 102.594 9.09231 102.651 8.78943C102.709 8.48356 102.697 8.20483 102.617 7.95325C102.541 7.69925 102.392 7.4856 102.17 7.3123C101.948 7.136 101.649 7.01146 101.271 6.9387L99.959 6.68576L98.5261 14.3056L96.5801 13.9305Z" fill="white"/>
<path d="M114.923 17.8056L118.829 9.28464L122.176 10.8573C122.817 11.1584 123.311 11.5304 123.658 11.9734C124.01 12.415 124.208 12.901 124.253 13.4314C124.303 13.9603 124.199 14.5064 123.941 15.0694C123.681 15.6353 123.337 16.065 122.907 16.3585C122.478 16.6493 121.983 16.7945 121.423 16.7942C120.865 16.7951 120.261 16.6425 119.609 16.3363L117.368 15.2833L118.032 13.8354L119.983 14.7521C120.325 14.913 120.631 14.9995 120.901 15.0116C121.171 15.0237 121.404 14.9614 121.601 14.8247C121.801 14.6893 121.965 14.4815 122.093 14.2013C122.223 13.9184 122.275 13.6533 122.251 13.4059C122.23 13.1598 122.127 12.933 121.944 12.7255C121.765 12.5164 121.502 12.3308 121.157 12.1686L119.947 11.6003L116.716 18.6484L114.923 17.8056ZM121.282 16.0806L121.613 20.949L119.633 20.0187L119.347 15.1716L121.282 16.0806Z" fill="white"/>
<path d="M141.643 28.086C140.994 28.8759 140.294 29.423 139.542 29.7275C138.793 30.034 138.044 30.1191 137.295 29.9831C136.55 29.8466 135.862 29.5121 135.229 28.9795C134.592 28.4429 134.14 27.8153 133.874 27.0964C133.607 26.3776 133.555 25.6173 133.716 24.8156C133.877 24.0139 134.281 23.2193 134.928 22.4318C135.577 21.642 136.276 21.0938 137.025 20.7874C137.774 20.4809 138.521 20.3959 139.266 20.5324C140.013 20.6665 140.705 21.0018 141.342 21.5384C141.974 22.071 142.424 22.6967 142.69 23.4155C142.961 24.1339 143.015 24.894 142.854 25.6957C142.696 26.4994 142.292 27.2962 141.643 28.086ZM140.106 26.7919C140.526 26.2802 140.805 25.7849 140.942 25.3058C141.081 24.8287 141.089 24.3844 140.965 23.973C140.841 23.5615 140.595 23.2014 140.229 22.8929C139.863 22.5843 139.468 22.4059 139.046 22.3575C138.624 22.3091 138.193 22.3967 137.752 22.6202C137.314 22.8457 136.885 23.2143 136.465 23.726C136.044 24.2376 135.765 24.732 135.626 25.2091C135.489 25.6881 135.482 26.1334 135.606 26.5449C135.73 26.9564 135.975 27.3164 136.342 27.6249C136.708 27.9335 137.103 28.112 137.525 28.1603C137.947 28.2087 138.377 28.1202 138.815 27.8946C139.255 27.6711 139.686 27.3035 140.106 26.7919Z" fill="white"/>
<path d="M156.591 41.4898C156.736 41.3079 156.845 41.1198 156.918 40.9254C156.993 40.7293 157.032 40.5278 157.033 40.3209C157.038 40.1148 157.006 39.9055 156.936 39.6929C156.868 39.4829 156.761 39.2727 156.615 39.0622C156.341 38.6689 156.004 38.3923 155.603 38.2323C155.203 38.0748 154.761 38.0454 154.276 38.1439C153.793 38.2407 153.286 38.4786 152.754 38.8576C152.222 39.2366 151.827 39.6403 151.567 40.0688C151.308 40.4973 151.184 40.9305 151.195 41.3686C151.208 41.8048 151.356 42.2259 151.638 42.6317C151.894 43 152.177 43.2683 152.488 43.4367C152.802 43.6059 153.127 43.6744 153.461 43.6422C153.797 43.6124 154.128 43.4816 154.454 43.2496L154.635 43.6148L153.255 41.6307L154.47 40.7647L156.71 43.985L155.748 44.6704C155.077 45.1486 154.402 45.4167 153.721 45.4747C153.043 45.5309 152.399 45.4015 151.79 45.0864C151.183 44.7695 150.655 44.288 150.205 43.6416C149.704 42.9202 149.421 42.1739 149.357 41.4029C149.295 40.63 149.45 39.8827 149.821 39.1609C150.197 38.4398 150.787 37.7924 151.592 37.2186C152.211 36.7776 152.825 36.4746 153.435 36.3096C154.049 36.1454 154.639 36.1069 155.206 36.1942C155.772 36.2815 156.294 36.4803 156.774 36.7904C157.254 37.1006 157.67 37.5099 158.024 38.0185C158.327 38.4544 158.546 38.9053 158.68 39.3714C158.817 39.8358 158.873 40.2947 158.846 40.7482C158.821 41.2043 158.716 41.6374 158.529 42.0477C158.345 42.4563 158.082 42.8214 157.741 43.1432L156.591 41.4898Z" fill="white"/>
<path d="M158.932 56.6812L167.687 53.3345L168.98 56.7996C169.227 57.4629 169.32 58.0742 169.258 58.6335C169.2 59.1945 169.002 59.6803 168.663 60.0906C168.329 60.5028 167.872 60.8194 167.293 61.0406C166.712 61.2628 166.165 61.3282 165.652 61.2368C165.142 61.1443 164.687 60.9017 164.286 60.5093C163.887 60.1197 163.562 59.5875 163.31 58.9128L162.445 56.5927L163.933 56.024L164.686 58.0439C164.818 58.3984 164.976 58.6744 165.161 58.8718C165.345 59.0692 165.555 59.188 165.792 59.2283C166.029 59.2714 166.292 59.238 166.58 59.1279C166.871 59.0168 167.094 58.8645 167.25 58.671C167.407 58.4804 167.492 58.2468 167.506 57.9703C167.524 57.6956 167.467 57.3795 167.333 57.0222L166.866 55.7699L159.624 58.5381L158.932 56.6812ZM164.685 59.9013L161.514 63.6071L160.75 61.5572L163.938 57.8985L164.685 59.9013Z" fill="white"/>
<path d="M165.474 76.3129L165.234 74.2027L174.91 76.334L175.199 78.8716L166.253 83.1663L166.013 81.0561L172.931 77.8869L172.923 77.8141L165.474 76.3129ZM169.119 75.7549L169.685 80.7392L168.148 80.9181L167.582 75.9338L169.119 75.7549Z" fill="white"/>
<path d="M176.621 95.4276L176.245 97.8425L169.628 99.3993L169.611 99.5078L175.433 103.052L175.056 105.467L165.8 103.988L166.096 102.089L172.121 103.051L172.133 102.975L166.527 99.6221L166.729 98.3287L173.104 96.8911L173.116 96.8142L167.069 95.8478L167.365 93.9484L176.621 95.4276Z" fill="white"/>
<path d="M15.5263 104.869L6.22004 105.991L5.76233 102.321C5.67434 101.616 5.73418 100.999 5.94186 100.47C6.14651 99.9409 6.4704 99.5177 6.91353 99.1999C7.35325 98.8795 7.88211 98.6821 8.5001 98.6076C9.11809 98.533 9.67999 98.6005 10.1858 98.81C10.6916 99.0194 11.1078 99.3611 11.4345 99.835C11.7607 100.306 11.9684 100.899 12.0575 101.613L12.3493 103.952L10.7725 104.142L10.5204 102.121C10.4732 101.743 10.3692 101.439 10.2083 101.209C10.044 100.977 9.83773 100.814 9.58936 100.721C9.33759 100.626 9.05872 100.596 8.75275 100.633C8.44376 100.67 8.18188 100.765 7.96714 100.917C7.74898 101.066 7.59177 101.273 7.49551 101.536C7.39621 101.8 7.37036 102.123 7.41794 102.504L7.58335 103.831L15.281 102.902L15.5263 104.869Z" fill="white"/>
<defs>
<linearGradient id="paint0_linear_1_341" x1="51" y1="63.4999" x2="119" y2="116" gradientUnits="userSpaceOnUse">
<stop stop-color="#0F3598"/>
<stop offset="1" stop-color="#5EC7FF"/>
</linearGradient>
<linearGradient id="paint1_linear_1_341" x1="46.1221" y1="150.381" x2="134.01" y2="150.381" gradientUnits="userSpaceOnUse">
<stop stop-color="#05459B"/>
<stop offset="0.285" stop-color="#034193"/>
<stop offset="0.700958" stop-color="#034193"/>
<stop offset="1" stop-color="#05459A"/>
</linearGradient>
<linearGradient id="paint2_linear_1_341" x1="42.8285" y1="140.987" x2="137.197" y2="140.987" gradientUnits="userSpaceOnUse">
<stop stop-color="#05459B"/>
<stop offset="0.285" stop-color="#034193"/>
<stop offset="0.700958" stop-color="#034193"/>
<stop offset="1" stop-color="#05459A"/>
</linearGradient>
<linearGradient id="paint3_linear_1_341" x1="35.4179" y1="136.494" x2="144.367" y2="136.494" gradientUnits="userSpaceOnUse">
<stop stop-color="#05459B"/>
<stop offset="0.285" stop-color="#034193"/>
<stop offset="0.700958" stop-color="#034193"/>
<stop offset="1" stop-color="#05459A"/>
</linearGradient>
<linearGradient id="paint4_linear_1_341" x1="90.1626" y1="0.999695" x2="90.1626" y2="179" gradientUnits="userSpaceOnUse">
<stop stop-color="#1C6FE7"/>
<stop offset="1" stop-color="#003C8A"/>
</linearGradient>
</defs>
</svg>
